<svg id="Layer_1" data-name="Layer 1" xmlns="http://www.w3.org/2000/svg" viewBox="0 0 290.21 272.11"><defs><style>.cls-1{fill:#3e4549;}.cls-2{fill:#062ce9;}.cls-3{fill:none;stroke:#111314;stroke-miterlimit:10;stroke-width:26.3px;}</style></defs><path class="cls-1" d="M179.9,440a29.9,29.9,0,0,1,22.48-10.08c23,0,37,21.49,37,42.82,0,22.15-13.56,43.64-37.53,43.64-8.27,0-17-3.64-21.66-10.25h-.33V557H156.75V432.51H179.9Zm36,33.07c0-10.92-7.28-22.65-19.18-22.65S177.58,462.1,177.58,473s7.28,22.81,19.18,22.81S215.94,483.93,215.94,473Z" transform="translate(-156.68 -284.89)"/><path class="cls-1" d="M269.5,432.51v44c0,9.26,1.49,20.33,13.23,20.33S296,485.75,296,476.49v-44H319.1v47.78c0,23.64-12.23,36-36.37,36s-36.37-12.4-36.37-36V432.51Z" transform="translate(-156.68 -284.89)"/><path class="cls-1" d="M355.14,513.69H332V373.49h23.15Z" transform="translate(-156.68 -284.89)"/><path class="cls-2" d="M380.93,400.93a13.72,13.72,0,1,0-13.72-13.72A13.68,13.68,0,0,0,380.93,400.93Z" transform="translate(-156.68 -284.89)"/><rect class="cls-1" x="212.68" y="147.62" width="23.15" height="81.18"/><path class="cls-1" d="M432.67,513.69H409.53V452h-7.94V432.51h7.94V405.07h23.14v27.44h14.22V452H432.67Z" transform="translate(-156.68 -284.89)"/><path class="cls-3" d="M381.53,389.37" transform="translate(-156.68 -284.89)"/><path class="cls-1" d="M380.71,349l-20.6,10.5C343.92,327.74,311.27,308,274.9,308c-52.43,0-95.09,41.53-95.09,92.59h0a11.57,11.57,0,0,1-23.13,0c0-.13,0-.25,0-.36.2-63.65,53.15-115.36,118.21-115.36a119.74,119.74,0,0,1,63,17.77A117,117,0,0,1,380.71,349Z" transform="translate(-156.68 -284.89)"/></svg>